Inverse Dynamics Generalized Forces
version=1
nRows=16
nColumns=34
inDegrees=no
endheader 
time	pelvis_tilt_moment	pelvis_list_moment	pelvis_rotation_moment	pelvis_tx_force	pelvis_ty_force	pelvis_tz_force	hip_flexion_l_moment	hip_adduction_l_moment	hip_rotation_l_moment	hip_flexion_r_moment	hip_adduction_r_moment	hip_rotation_r_moment	knee_angle_l_moment	knee_angle_r_moment	ankle_angle_l_moment	ankle_angle_r_moment	subtalar_angle_l_moment	subtalar_angle_r_moment	mtp_angle_l_moment	mtp_angle_r_moment	lumbar_extension_moment	lumbar_bending_moment	lumbar_rotation_moment	arm_flex_l_moment	arm_add_l_moment	arm_rot_l_moment	arm_flex_r_moment	arm_add_r_moment	arm_rot_r_moment	elbow_flex_l_moment	elbow_flex_r_moment	pro_sup_l_moment	pro_sup_r_moment	
          4.70000000	          0.00000362	          0.00000288	          0.00000051	         -0.00000075	          0.00000237	         -0.00000003	        -27.36958624	        -49.01568854	          7.13667597	        -10.48622177	         21.56966392	         -6.81996890	         22.79637379	          6.11713101	          0.20698451	          2.11135334	         -0.79984537	         -0.34463567	         -0.00180179	         -0.17724400	         38.47724551	       -109.71430659	        -54.57987790	         74.27865596	        -88.93577704	        -15.23382846	          4.90055446	         -7.77118824	        -20.80247089	          1.78195960	         11.69664489	         -1.98083593	         -0.77990108	
          4.71000000	         -0.00000292	         -0.00000249	          0.00000016	         -0.00000006	         -0.00000133	         -0.00000072	        -22.84299106	        -46.44016937	          5.42786164	         -2.51144327	         10.66270733	         -8.08402893	         19.03192059	          1.33149970	          0.33786009	          1.60213261	         -0.59666889	         -0.01302069	         -0.02959324	         -0.12590670	         21.37712895	        -96.45018832	        -54.36650622	         89.48103409	       -106.57295239	        -50.82385601	        -11.50000618	        -43.11064771	         22.46815624	         -0.48149266	         11.12421689	         -3.50142028	          0.93232669	
          4.72000000	         -0.00000166	          0.00000016	         -0.00000007	         -0.00000035	          0.00000007	          0.00000020	        -22.01931569	        -52.81423407	          6.55960166	          1.35111581	         11.48408781	         -5.55079918	         15.91383256	         -2.70707811	          0.64660575	          1.63472143	         -0.69269478	          0.09392683	         -0.05351753	         -0.13382322	         22.94886519	       -107.64135362	        -62.17487502	         55.92719152	       -117.47749699	        -33.46268315	         21.25658881	        -24.91027202	         -5.66188444	         36.81221041	         10.00023960	         -2.76928234	         -0.34713235	
          4.73000000	          0.00000031	         -0.00000027	         -0.00000029	         -0.00000050	         -0.00000051	         -0.00000028	        -10.82677545	        -69.21619145	         13.72419992	          7.37322981	          7.61042227	         -3.52927342	          8.08330602	         -7.77661208	          1.48845796	          2.08150843	         -1.30963949	          0.11258912	         -0.08690731	         -0.17590300	         11.96644128	       -119.72518737	        -62.63483716	          3.60776707	       -125.53890509	         13.86522524	         47.85046579	          8.27982351	        -23.85282966	         43.37995857	         13.43465188	         -0.05956803	         -1.29230359	
          4.74000000	          0.00000056	          0.00000055	         -0.00000017	          0.00000101	          0.00000047	          0.00000143	         13.66219805	        -71.22921013	         14.86784901	         11.06279856	          4.85576526	         -1.29079951	         -4.20285888	        -16.92686477	          2.15086439	          1.51050880	         -1.50272516	          0.38524985	         -0.10410782	         -0.12979105	        -10.40058645	       -117.85435602	        -53.71460505	        -34.56374132	       -112.06991162	         49.34146900	         43.20401781	         14.33276997	         13.19977118	         30.59301283	         16.41284850	          1.68902078	         -0.19934298	
          4.75000000	         -0.00000070	         -0.00000042	          0.00000009	          0.00000002	          0.00000014	         -0.00000017	         22.32898713	        -75.50882679	         18.72319234	          9.86895184	         -7.84990362	          1.86566271	        -11.88746459	        -18.43561579	          2.37264748	          1.19152726	         -1.74788467	          0.22286262	         -0.09633068	         -0.07845303	        -13.33279717	       -101.15107970	        -42.23922965	        -42.27207881	        -94.65953600	         54.63549321	         51.70671032	         12.53266434	          4.92072804	         21.07279029	         10.83198289	          1.87015995	         -0.35420119	
          4.76000000	          0.00000033	         -0.00000003	          0.00000013	         -0.00000084	         -0.00000032	         -0.00000093	         20.32980089	        -80.65861893	         23.56473784	          1.87265554	        -33.29608817	         13.43253022	        -15.00453859	        -13.60679021	          2.53289589	          1.59132994	         -2.15721494	         -1.06448643	         -0.09107162	         -0.04132425	         -0.74754980	        -66.83426269	        -35.32664173	          2.04370987	        -53.66581498	          3.01113309	         48.36757895	          7.40940769	          1.51856896	          9.15954949	          8.26345862	         -0.19744349	         -0.34044733	
          4.77000000	         -0.00000012	          0.00000000	         -0.00000012	          0.00000037	         -0.00000018	          0.00000022	         14.25164544	        -81.27931579	         25.70816711	         -6.66691214	        -47.89067491	         21.85038037	        -16.61961631	         -9.42235144	          2.64632348	          1.90136488	         -2.46915970	         -2.20917967	         -0.09164669	         -0.01929888	         14.38616205	        -40.99517523	        -33.68440807	         36.45723162	        -47.37621825	        -34.95872323	         34.27001111	         -0.36043210	          9.66166947	          3.17478753	          7.36065228	         -1.87372601	          0.01123469	
          4.78000000	         -0.00000043	         -0.00000018	         -0.00000007	          0.00000007	          0.00000012	          0.00000028	          7.23526276	        -83.74543573	         27.64849502	        -14.96957399	        -58.85225923	         29.77003130	        -18.12459725	         -6.09308318	          2.73003020	          2.03012372	         -2.83071847	         -3.29790599	         -0.09029591	         -0.00119269	         27.20293790	        -23.74314178	        -38.38229025	         50.14124925	        -72.00397477	        -25.28852308	          9.56847655	         -5.45694796	         25.25124122	         -0.85994291	          6.22726451	         -2.07437317	          0.59911445	
          4.79000000	          0.00000039	          0.00000034	          0.00000032	         -0.00000017	         -0.00000029	          0.00000026	          5.79572180	        -80.65014676	         25.89575689	        -16.68593448	        -52.62350413	         28.54981053	        -19.35331705	         -4.04722893	          2.62575585	          1.42486484	         -2.91651411	         -3.00056039	         -0.08503656	          0.02066799	         24.68568161	        -31.25124731	        -44.92693449	         14.75499744	        -19.32354103	         19.14547990	          3.79102041	        -26.55364359	        -11.75400951	        -27.81137344	          6.00863349	          0.03802433	         -0.19559731	
          4.80000000	          0.00000059	          0.00000063	          0.00000035	          0.00000053	         -0.00000052	          0.00000050	          3.04269255	        -76.92030031	         24.92586460	        -16.62206260	        -40.96912547	         23.31256488	        -19.28307722	         -1.70055992	          2.32431443	          0.78361824	         -2.96284331	         -2.39166838	         -0.06765938	          0.03967808	         20.75556070	        -44.86082317	        -48.74064016	        -29.03905421	         23.85276468	         50.59625562	         17.92982570	        -36.94099893	        -22.76072478	        -40.90727623	          4.60317137	          2.14564088	         -0.41652742	
          4.81000000	         -0.00000018	          0.00000079	          0.00000041	          0.00000147	          0.00000028	          0.00000120	          2.91110866	        -69.56545816	         20.98443508	          1.38905726	        -30.17101321	         20.51627418	        -13.52708175	         -2.34091313	          1.69003063	          1.30552234	         -2.48537186	         -2.18853142	         -0.04687440	         -0.00744910	        -28.51369832	        -69.68062535	        -61.60607697	        -64.39244098	         54.59420670	         -4.41230536	         33.01271104	        -47.41746264	        -54.02952605	          6.96480076	          7.34761339	          3.83462072	         -1.49981174	
          4.82000000	         -0.00000148	         -0.00000170	         -0.00000043	         -0.00000071	         -0.00000161	         -0.00000071	          2.02685989	        -56.94421074	         17.96265413	         -3.94770480	        -30.70999373	         21.15809451	         -9.34489000	          0.53917586	          1.29854303	          1.28533891	         -2.14177594	         -1.90390885	         -0.02085530	         -0.01689946	         -8.81511207	        -31.29389683	        -50.58130768	         -8.88692482	         55.88720592	          3.44355830	         -1.71398177	        -17.51514500	        -47.53590732	         -3.64101919	         -2.06276256	          0.79620879	         -1.16990876	
          4.83000000	          0.00000459	          0.00000365	          0.00000077	         -0.00000233	          0.00000532	          0.00000068	         -5.59727121	        -48.66332085	         15.11172624	        -11.41379893	        -30.12392296	         21.76208642	         -5.91154894	          0.94537275	          0.17398077	          0.67137590	         -1.46708673	         -1.89142981	          0.05611987	          0.02404585	          9.93843390	        -18.46849593	        -50.61916644	         24.60149157	          4.44413369	        -33.37127823	        -14.52752823	        -31.28332051	          3.24185080	         -1.76623703	         14.86736535	         -1.76090131	         -0.09888241	
          4.84000000	         -0.00000031	         -0.00000260	          0.00000069	         -0.00000149	          0.00000077	         -0.00000350	        -15.03517730	        -42.62456635	         12.38686357	        -16.93516769	        -31.36993230	         19.73500059	         -4.32956857	          1.59535392	         -0.21229608	          0.82384274	         -0.88592974	         -1.75732024	          0.05771721	         -0.01462947	         33.54277865	         -7.33753293	        -41.48150190	         26.60167741	        -33.99650229	        -29.90139770	         -0.15636677	        -51.51919043	         39.57628424	         11.83946802	         24.78225103	         -2.30925113	          0.76492630	
          4.85000000	          0.00000076	         -0.00000063	          0.00000049	         -0.00000137	          0.00000279	         -0.00000228	        -30.42340511	        -28.56619238	          7.23207282	        -24.14858585	        -28.12160408	         16.06155890	          1.50225884	          4.43227994	         -0.74636627	          0.87478469	         -0.20430429	         -1.44487849	          0.05373425	         -0.05211871	         65.13624193	          7.29585917	        -28.17126613	         27.21808503	        -62.87041105	        -26.23526320	         36.72728321	        -68.53010723	          0.75575139	         21.53715392	         17.15711501	         -2.43999441	          0.10995535	
